<svg width="32" height="28" viewBox="0 0 32 28" fill="b4afa6" xmlns="http://www.w3.org/2000/svg">
<path d="M31.899 21.4303C31.899 21.4303 31.8918 21.4255 31.887 21.4231C31.8882 21.4231 31.9279 21.4435 32 21.4928C31.9724 21.4736 29.1298 19.494 24.5096 11.4928C19.8954 3.5 19.5998 0.0480769 19.5974 0.0108173C19.6034 0.0997596 19.601 0.144231 19.601 0.144231H15.9952L12.3894 0.13101C12.3894 0.13101 12.387 0.0877404 12.393 0C12.3906 0.0336538 12.0877 3.48317 7.47596 11.5024C2.87861 19.4952 0.0288462 21.4675 0 21.4868C0.0745192 21.4363 0.115385 21.4171 0.115385 21.4171C0.112981 21.4183 0.110577 21.4195 0.108173 21.4219L3.69712 27.6767C3.69712 27.6767 3.70192 27.6743 3.70433 27.6719C3.70433 27.6719 3.66827 27.6959 3.58894 27.7356C3.61899 27.7212 6.75721 26.2524 16 26.2416H16.0938C25.2464 26.2416 28.3582 27.7127 28.3894 27.7272C28.3077 27.6875 28.2716 27.6623 28.2716 27.6623C28.2752 27.6647 28.2788 27.6671 28.2837 27.6695L31.9014 21.4303H31.899ZM15.9916 19.03C14.2308 19.0325 12.6478 19.0829 11.2284 19.1683C12.0132 17.9772 12.8474 16.6262 13.7272 15.0962C14.607 13.5661 15.3558 12.1671 15.9916 10.8918C16.6298 12.1683 17.381 13.5685 18.2644 15.0986C19.1454 16.625 19.9808 17.9724 20.7644 19.1599C19.3413 19.0757 17.7572 19.0313 15.9904 19.0288L15.9916 19.03Z" fill="b4afa6"/>
</svg>
